<?xml version="1.0" encoding="UTF-8" standalone="no"?>
<!-- Created with Inkscape (http://www.inkscape.org/) -->

<svg
   width="60mm"
   height="60mm"
   viewBox="0 0 60 60"
   version="1.1"
   id="svg1"
   xml:space="preserve"
   inkscape:version="1.3.2 (091e20e, 2023-11-25, custom)"
   sodipodi:docname="241025-p&amp;c-logo.svg"
   inkscape:export-filename="241025-p&amp;c-logo.png"
   inkscape:export-xdpi="96"
   inkscape:export-ydpi="96"
   xmlns:inkscape="http://www.inkscape.org/namespaces/inkscape"
   xmlns:sodipodi="http://sodipodi.sourceforge.net/DTD/sodipodi-0.dtd"
   xmlns="http://www.w3.org/2000/svg"
   xmlns:svg="http://www.w3.org/2000/svg"><sodipodi:namedview
     id="namedview1"
     pagecolor="#ffffff"
     bordercolor="#000000"
     borderopacity="0.25"
     inkscape:showpageshadow="2"
     inkscape:pageopacity="0.0"
     inkscape:pagecheckerboard="0"
     inkscape:deskcolor="#d1d1d1"
     inkscape:document-units="mm"
     inkscape:zoom="2.1754629"
     inkscape:cx="11.491807"
     inkscape:cy="111.9302"
     inkscape:window-width="2560"
     inkscape:window-height="1566"
     inkscape:window-x="-11"
     inkscape:window-y="-11"
     inkscape:window-maximized="1"
     inkscape:current-layer="layer2"
     inkscape:export-bgcolor="#ffffffff" /><defs
     id="defs1"><rect
       x="94.232818"
       y="103.42626"
       width="41.370506"
       height="24.362631"
       id="rect2" /><rect
       x="91.934457"
       y="102.04725"
       width="45.507556"
       height="24.362631"
       id="rect1" /><linearGradient
       id="swatch3"
       inkscape:swatch="solid"><stop
         style="stop-color:#000000;stop-opacity:1;"
         offset="0"
         id="stop3" /></linearGradient></defs><g
     inkscape:label="Layer 1"
     inkscape:groupmode="layer"
     id="layer1"
     transform="translate(-68.607222,-114.55227)"><g
       id="g2"
       transform="translate(-1.2078525)"><path
         style="fill:#000000;stroke-width:3.32126"
         d="m 112.58189,129.75213 c 5.09596,0.53623 9.34523,5.03268 10.59519,11.2115 0.25951,1.28282 0.33671,2.10462 0.3374,3.59129 6.7e-4,1.40226 -0.0648,2.15011 -0.29714,3.40003 -0.8538,4.59133 -3.52263,8.51384 -7.01754,10.31408 -1.54123,0.79387 -2.87773,1.11941 -4.58665,1.11724 -1.24739,-0.002 -1.83892,-0.0935 -2.99861,-0.46546 -2.58523,-0.82939 -4.94185,-2.79849 -6.51945,-5.44742 -0.4126,-0.69279 -0.49539,-0.95499 -0.4159,-1.31717 0.0296,-0.13458 0.092,-0.30617 0.13882,-0.38097 0.0936,-0.14966 3.05061,-2.67355 8.40169,-7.20706 -2.75577,-2.45337 -5.6731,-4.62799 -8.37464,-7.17921 -0.18338,-0.24934 -0.24449,-0.57507 -0.16824,-0.89739 0.03,-0.1271 0.18406,-0.45137 0.34215,-0.72042 1.87065,-3.18302 4.70978,-5.31216 7.86637,-5.89912 0.75657,-0.14056 1.98158,-0.19514 2.69657,-0.12 z m -1.84703,1.97871 c -2.10096,0.22953 -4.09409,1.24696 -5.73332,2.92713 -0.38808,0.39776 -1.2002,1.41048 -1.36212,1.69859 l -0.0967,0.17197 c 2.85855,2.53985 5.87604,4.8035 8.68574,7.43173 0.2433,0.38987 0.21473,0.94999 -0.0655,1.28334 -0.33803,0.4019 -8.53701,7.23708 -8.56559,7.3967 -0.0203,0.11402 0.71775,1.09306 1.24979,1.65785 4.23833,4.49918 10.4695,4.11282 14.28637,-0.88584 2.77602,-3.63551 3.5947,-8.94102 2.10136,-13.61785 -1.67944,-5.25956 -5.9742,-8.5578 -10.5001,-8.06362 z"
         id="path2-3"
         sodipodi:nodetypes="cssccccscsccscccccsccsccccccc" /><path
         style="fill:#000000;stroke-width:3.32126"
         d="m 87.048259,129.75213 c -5.09596,0.53623 -9.34523,5.03268 -10.59519,11.2115 -0.25951,1.28282 -0.33671,2.10462 -0.3374,3.59129 -6.7e-4,1.40226 0.0648,2.15011 0.29714,3.40003 0.8538,4.59133 3.52263,8.51384 7.01754,10.31408 1.54123,0.79387 2.87773,1.11941 4.58665,1.11724 1.24739,-0.002 1.83892,-0.0935 2.99861,-0.46546 2.58523,-0.82939 4.94185,-2.79849 6.51945,-5.44742 0.4126,-0.69279 0.49539,-0.95499 0.4159,-1.31717 -0.0296,-0.13458 -0.092,-0.30617 -0.13882,-0.38097 -0.0936,-0.14966 -3.05061,-2.67355 -8.40169,-7.20706 2.75577,-2.45337 5.6731,-4.62799 8.37464,-7.17921 0.18338,-0.24934 0.24449,-0.57507 0.16824,-0.89739 -0.03,-0.1271 -0.18406,-0.45137 -0.34215,-0.72042 -1.87065,-3.18302 -4.70978,-5.31216 -7.86637,-5.89912 -0.75657,-0.14056 -1.98158,-0.19514 -2.69657,-0.12 z m 1.84703,1.97871 c 2.10096,0.22953 4.09409,1.24696 5.73332,2.92713 0.38808,0.39776 1.2002,1.41048 1.36212,1.69859 l 0.0967,0.17197 c -2.85855,2.53985 -5.87604,4.8035 -8.68574,7.43173 -0.2433,0.38987 -0.21473,0.94999 0.0655,1.28334 0.33803,0.4019 8.53701,7.23708 8.56559,7.3967 0.0203,0.11402 -0.71775,1.09306 -1.24979,1.65785 -4.23833,4.49918 -10.4695,4.11282 -14.28637,-0.88584 -2.77602,-3.63551 -3.5947,-8.94102 -2.10136,-13.61785 1.67944,-5.25956 5.9742,-8.5578 10.5001,-8.06362 z"
         id="path2-3-0"
         sodipodi:nodetypes="cssccccscsccscccccsccsccccccc" /></g><path
       d="m 121.75119,130.54767 c -0.0326,-1.0378 -0.13091,-1.92278 -0.29476,-2.64945 -0.4789,-2.13418 -1.55246,-3.29741 -3.56237,-3.86113 -0.78082,-0.21966 -1.73756,-0.35327 -2.90766,-0.40816 -0.53581,-0.0247 -1.01573,-0.0275 -5.47987,-0.0275 -5.00401,0 -5.32838,-0.003 -5.99313,-0.0459 -0.84499,-0.0559 -1.50166,-0.17391 -2.04356,-0.36792 -1.08172,-0.38803 -1.807633,-1.13298 -2.338333,-2.40051 -0.14536,-0.34867 -0.254124,-0.66716 -0.397484,-1.16868 l -0.0101,-0.0348 h -0.0598 -0.0597 l -0.0101,0.0348 c -0.38536,1.34529 -0.84887,2.21566 -1.50264,2.81693 -0.777778,0.71659 -1.816765,1.04788 -3.551225,1.13389 -0.153402,0.008 -0.316179,0.0161 -0.360825,0.0183 -0.04485,0.003 -2.496944,0.0101 -5.449387,0.0128 -3.717895,0.007 -5.422782,0.0112 -5.54586,0.0166 -0.30603,0.0165 -0.486937,0.0292 -0.665944,0.0441 -2.864929,0.22969 -4.478334,1.13848 -5.307955,2.98898 -0.436133,0.97374 -0.674049,2.24036 -0.745209,3.9792 l -0.01012,0.20592 0.05654,0.0523 c 0.0317,0.0292 0.05901,0.0514 0.06081,0.0486 8.32e-4,-0.002 0.02124,-0.097 0.04294,-0.21049 0.34465,-1.83677 1.027905,-3.02558 2.156362,-3.75407 0.612971,-0.39536 1.359259,-0.66077 2.306708,-0.82093 0.449452,-0.0759 0.864217,-0.11803 1.601288,-0.1629 0.123977,-0.008 1.679575,-0.0112 5.500102,-0.0166 5.293849,-0.008 5.436147,-0.008 5.998381,-0.0366 1.238271,-0.0661 2.118697,-0.2425 2.846675,-0.57199 0.570269,-0.25808 1.022709,-0.59853 1.408009,-1.0616 0.4829,-0.57932 0.86319,-1.37368 1.12442,-2.34377 0.0256,-0.0952 0.0475,-0.18033 0.0507,-0.18855 0.003,-0.0128 0.0164,-0.0165 0.0546,-0.0165 0.0565,0 0.0448,-0.0228 0.10161,0.18308 0.189074,0.6809 0.464604,1.33068 0.770584,1.81207 0.717783,1.12932 1.722293,1.75164 3.274673,2.0262 0.53786,0.096 1.06346,0.14456 1.93779,0.18125 0.17902,0.008 1.77718,0.0112 5.42389,0.0166 3.73929,0.007 5.21756,0.0101 5.34259,0.0165 1.12129,0.0685 1.83908,0.18033 2.562,0.39627 0.493,0.1473 1.01261,0.3798 1.39074,0.62232 0.34368,0.22147 0.67002,0.50244 0.92925,0.80262 0.62422,0.72023 1.03808,1.72237 1.21291,2.93955 0.0317,0.22055 0.0209,0.20502 0.0925,0.14087 0.0449,-0.0395 0.0598,-0.0593 0.0579,-0.0771 0,-0.0128 -0.003,-0.13171 -0.0101,-0.2654 z"
       id="path1-4-7-2"
       style="fill:#000000;stroke:none;stroke-width:0.000964568" /><path
       d="m 121.75118,158.42173 c -0.0326,1.0378 -0.13091,1.92278 -0.29476,2.64945 -0.4789,2.13418 -1.55246,3.29741 -3.56237,3.86113 -0.78082,0.21966 -1.73756,0.35327 -2.90766,0.40816 -0.53581,0.0247 -1.01573,0.0275 -5.47987,0.0275 -5.00401,0 -5.32838,0.003 -5.99313,0.0459 -0.84499,0.0559 -1.50166,0.17391 -2.04356,0.36792 -1.08172,0.38803 -1.807629,1.13298 -2.338329,2.40051 -0.14536,0.34867 -0.25412,0.66716 -0.39748,1.16868 l -0.0101,0.0348 h -0.0598 -0.05969 l -0.0101,-0.0348 c -0.38536,-1.34529 -0.84887,-2.21566 -1.50264,-2.81693 -0.77778,-0.71659 -1.81677,-1.04788 -3.55123,-1.13389 -0.1534,-0.008 -0.31618,-0.0161 -0.36082,-0.0183 -0.0448,-0.003 -2.496946,-0.0101 -5.449389,-0.0128 -3.717895,-0.007 -5.422782,-0.0112 -5.54586,-0.0166 -0.30603,-0.0165 -0.486937,-0.0292 -0.665944,-0.0441 -2.864929,-0.22969 -4.478334,-1.13848 -5.307955,-2.98898 -0.436133,-0.97374 -0.674049,-2.24036 -0.745209,-3.9792 l -0.01012,-0.20592 0.05654,-0.0523 c 0.0317,-0.0292 0.05901,-0.0514 0.06081,-0.0486 8.32e-4,0.002 0.02124,0.097 0.04294,0.21049 0.34465,1.83677 1.027905,3.02558 2.156362,3.75407 0.612971,0.39536 1.359259,0.66077 2.306708,0.82093 0.449452,0.0759 0.864217,0.11803 1.601288,0.1629 0.123977,0.008 1.679575,0.0112 5.500102,0.0166 5.293847,0.008 5.436147,0.008 5.998377,0.0366 1.23828,0.0661 2.1187,0.2425 2.84668,0.57199 0.57027,0.25808 1.02271,0.59853 1.40801,1.0616 0.4829,0.57932 0.86319,1.37368 1.12442,2.34377 0.0256,0.0952 0.0475,0.18033 0.0507,0.18855 0.003,0.0128 0.01639,0.0165 0.05459,0.0165 0.0565,0 0.0448,0.0228 0.10161,-0.18308 0.18907,-0.6809 0.4646,-1.33068 0.77058,-1.81207 0.717779,-1.12932 1.722289,-1.75164 3.274669,-2.0262 0.53786,-0.096 1.06346,-0.14456 1.93779,-0.18125 0.17902,-0.008 1.77718,-0.0112 5.42389,-0.0166 3.73929,-0.007 5.21756,-0.0101 5.34259,-0.0165 1.12129,-0.0685 1.83908,-0.18033 2.562,-0.39627 0.493,-0.1473 1.01261,-0.3798 1.39074,-0.62232 0.34368,-0.22147 0.67002,-0.50244 0.92925,-0.80262 0.62422,-0.72023 1.03808,-1.72237 1.21291,-2.93955 0.0317,-0.22055 0.0209,-0.20502 0.0925,-0.14087 0.0449,0.0395 0.0598,0.0593 0.0579,0.0771 0,0.0128 -0.003,0.13171 -0.0101,0.2654 z"
       id="path1-4-7-2-3"
       style="fill:#000000;stroke:none;stroke-width:0.000964568" /><ellipse
       style="opacity:1;fill:#000000;fill-opacity:0;stroke:#000000;stroke-width:1.48;stroke-opacity:1"
       id="path3"
       cx="86.850471"
       cy="135.80553"
       rx="0.48648649"
       ry="0.42567569" /><ellipse
       style="fill:#000000;fill-opacity:0;stroke:#000000;stroke-width:1.48;stroke-opacity:1"
       id="path3-2"
       cx="110.11839"
       cy="135.80553"
       rx="0.48648649"
       ry="0.42567569" /></g><g
     inkscape:groupmode="layer"
     id="layer2"
     inkscape:label="Layer 2"><text
       xml:space="preserve"
       style="font-style:normal;font-variant:normal;font-weight:bold;font-stretch:normal;font-size:8.46667px;font-family:Georgia;-inkscape-font-specification:'Georgia, Bold';font-variant-ligatures:normal;font-variant-caps:normal;font-variant-numeric:normal;font-variant-east-asian:normal;fill:#000000;fill-opacity:1;stroke-width:6.01001"
       x="23.472975"
       y="31.943806"
       id="text3"><tspan
         sodipodi:role="line"
         style="font-style:normal;font-variant:normal;font-weight:bold;font-stretch:normal;font-size:6.35px;font-family:Georgia;-inkscape-font-specification:'Georgia, Bold';font-variant-ligatures:normal;font-variant-caps:normal;font-variant-numeric:normal;font-variant-east-asian:normal;stroke-width:6.01"
         x="23.472975"
         y="31.943806"
         id="tspan4">PaC</tspan></text></g></svg>
