<?xml version="1.0" encoding="UTF-8" standalone="no"?>
<!-- Created with Inkscape (http://www.inkscape.org/) -->

<svg
   width="800"
   height="800"
   viewBox="0 0 59.792838 59.792838"
   version="1.1"
   id="svg1"
   xml:space="preserve"
   xmlns="http://www.w3.org/2000/svg"
   xmlns:svg="http://www.w3.org/2000/svg"><defs
     id="defs1"><linearGradient
       id="swatch3"><stop
         style="stop-color:#000000;stop-opacity:1;"
         offset="0"
         id="stop3" /></linearGradient></defs><g
     id="layer1"
     transform="translate(-68.991947,-115.26612)"><g
       id="g2"
       transform="matrix(1.2587728,0,0,1.249094,-26.756135,-35.487143)"><path
         style="fill:#000000;stroke-width:3.32126"
         d="m 112.58189,129.75213 c 5.09596,0.53623 9.34523,5.03268 10.59519,11.2115 0.25951,1.28282 0.33671,2.10462 0.3374,3.59129 6.7e-4,1.40226 -0.0648,2.15011 -0.29714,3.40003 -0.8538,4.59133 -3.52263,8.51384 -7.01754,10.31408 -1.54123,0.79387 -2.87773,1.11941 -4.58665,1.11724 -1.24739,-0.002 -1.83892,-0.0935 -2.99861,-0.46546 -2.58523,-0.82939 -4.94185,-2.79849 -6.51945,-5.44742 -0.4126,-0.69279 -0.49539,-0.95499 -0.4159,-1.31717 0.0296,-0.13458 0.092,-0.30617 0.13882,-0.38097 0.0936,-0.14966 3.05061,-2.67355 8.40169,-7.20706 -2.75577,-2.45337 -5.6731,-4.62799 -8.37464,-7.17921 -0.18338,-0.24934 -0.24449,-0.57507 -0.16824,-0.89739 0.03,-0.1271 0.18406,-0.45137 0.34215,-0.72042 1.87065,-3.18302 4.70978,-5.31216 7.86637,-5.89912 0.75657,-0.14056 1.98158,-0.19514 2.69657,-0.12 z m -1.84703,1.97871 c -2.10096,0.22953 -4.09409,1.24696 -5.73332,2.92713 -0.38808,0.39776 -1.2002,1.41048 -1.36212,1.69859 l -0.0967,0.17197 c 2.85855,2.53985 5.87604,4.8035 8.68574,7.43173 0.2433,0.38987 0.21473,0.94999 -0.0655,1.28334 -0.33803,0.4019 -8.53701,7.23708 -8.56559,7.3967 -0.0203,0.11402 0.71775,1.09306 1.24979,1.65785 4.23833,4.49918 10.4695,4.11282 14.28637,-0.88584 2.77602,-3.63551 3.5947,-8.94102 2.10136,-13.61785 -1.67944,-5.25956 -5.9742,-8.5578 -10.5001,-8.06362 z"
         id="path2-3" /><path
         style="fill:#000000;stroke-width:3.32126"
         d="m 87.048259,129.75213 c -5.09596,0.53623 -9.34523,5.03268 -10.59519,11.2115 -0.25951,1.28282 -0.33671,2.10462 -0.3374,3.59129 -6.7e-4,1.40226 0.0648,2.15011 0.29714,3.40003 0.8538,4.59133 3.52263,8.51384 7.01754,10.31408 1.54123,0.79387 2.87773,1.11941 4.58665,1.11724 1.24739,-0.002 1.83892,-0.0935 2.99861,-0.46546 2.58523,-0.82939 4.94185,-2.79849 6.51945,-5.44742 0.4126,-0.69279 0.49539,-0.95499 0.4159,-1.31717 -0.0296,-0.13458 -0.092,-0.30617 -0.13882,-0.38097 -0.0936,-0.14966 -3.05061,-2.67355 -8.40169,-7.20706 2.75577,-2.45337 5.6731,-4.62799 8.37464,-7.17921 0.18338,-0.24934 0.24449,-0.57507 0.16824,-0.89739 -0.03,-0.1271 -0.18406,-0.45137 -0.34215,-0.72042 -1.87065,-3.18302 -4.70978,-5.31216 -7.86637,-5.89912 -0.75657,-0.14056 -1.98158,-0.19514 -2.69657,-0.12 z m 1.84703,1.97871 c 2.10096,0.22953 4.09409,1.24696 5.73332,2.92713 0.38808,0.39776 1.2002,1.41048 1.36212,1.69859 l 0.0967,0.17197 c -2.85855,2.53985 -5.87604,4.8035 -8.68574,7.43173 -0.2433,0.38987 -0.21473,0.94999 0.0655,1.28334 0.33803,0.4019 8.53701,7.23708 8.56559,7.3967 0.0203,0.11402 -0.71775,1.09306 -1.24979,1.65785 -4.23833,4.49918 -10.4695,4.11282 -14.28637,-0.88584 -2.77602,-3.63551 -3.5947,-8.94102 -2.10136,-13.61785 1.67944,-5.25956 5.9742,-8.5578 10.5001,-8.06362 z"
         id="path2-3-0" /></g><path
       d="m 128.02138,128.99738 c -0.0411,-1.2963 -0.16479,-2.40173 -0.37105,-3.30941 -0.60282,-2.66579 -1.95418,-4.11877 -4.4842,-4.82291 -0.98288,-0.27437 -2.1872,-0.44126 -3.66009,-0.50984 -0.67446,-0.0309 -1.27858,-0.0343 -6.89791,-0.0343 -6.29891,0 -6.70722,-0.003 -7.544,-0.0573 -1.06363,-0.0698 -1.89024,-0.21723 -2.57236,-0.45956 -1.36165,-0.48469 -2.27541,-1.4152 -2.943445,-2.99847 -0.182975,-0.43552 -0.319884,-0.83334 -0.500342,-1.45978 l -0.01271,-0.0435 h -0.07528 -0.07515 l -0.01271,0.0435 c -0.485079,1.68039 -1.068534,2.76755 -1.891482,3.51861 -0.979046,0.89508 -2.286895,1.3089 -4.470185,1.41633 -0.193099,0.0103 -0.397997,0.0201 -0.454197,0.0228 -0.05646,0.003 -3.143085,0.0126 -6.85954,0.016 -4.679986,0.009 -6.826051,0.0139 -6.980978,0.0208 -0.385222,0.0206 -0.612943,0.0364 -0.838273,0.055 -3.606294,0.2869 -5.637205,1.42206 -6.681509,3.73351 -0.548993,1.21629 -0.848475,2.79842 -0.938049,4.97039 l -0.01273,0.25722 0.07117,0.0653 c 0.0399,0.0364 0.07428,0.0642 0.07654,0.0607 0.001,-0.002 0.02674,-0.12116 0.05405,-0.26292 0.433836,-2.2943 1.293899,-3.77924 2.714369,-4.68918 0.771592,-0.49385 1.710999,-0.82537 2.903622,-1.02543 0.565757,-0.0948 1.087853,-0.14742 2.015658,-0.20347 0.156058,-0.0103 2.114203,-0.0139 6.923379,-0.0208 6.663753,-0.0103 6.842874,-0.0103 7.550599,-0.0457 1.558701,-0.0826 2.666958,-0.30291 3.583317,-0.71448 0.717839,-0.32238 1.287359,-0.74762 1.772363,-1.32604 0.607862,-0.72362 1.086561,-1.71586 1.41539,-2.92758 0.03222,-0.11892 0.0598,-0.22526 0.06382,-0.23553 0.0037,-0.016 0.02064,-0.0207 0.06873,-0.0207 0.07113,0 0.05639,-0.0285 0.127904,0.22869 0.238002,0.8505 0.584832,1.66213 0.969989,2.26343 0.90355,1.41064 2.16799,2.18797 4.12209,2.53092 0.67704,0.11991 1.33866,0.18057 2.43923,0.2264 0.22535,0.0103 2.23706,0.0139 6.82745,0.0207 4.70691,0.009 6.56773,0.0126 6.72511,0.0207 1.41144,0.0856 2.31497,0.22524 3.22498,0.49497 0.62056,0.184 1.27465,0.47441 1.75062,0.77734 0.43262,0.27663 0.8434,0.6276 1.16971,1.00255 0.78576,0.89964 1.30671,2.15141 1.52678,3.67178 0.0399,0.27548 0.0263,0.25608 0.11644,0.17595 0.0565,-0.0494 0.0753,-0.074 0.0729,-0.0963 0,-0.016 -0.003,-0.16453 -0.0127,-0.33151 z"
       id="path1-4-7-2"
       style="fill:#000000;stroke:none;stroke-width:0.0012095" /><path
       d="m 128.02135,161.32768 c -0.0411,1.29632 -0.16477,2.40173 -0.37103,3.30942 -0.60283,2.66579 -1.95419,4.11877 -4.4842,4.82291 -0.98288,0.27438 -2.1872,0.44127 -3.6601,0.50983 -0.67445,0.0309 -1.27857,0.0343 -6.8979,0.0343 -6.29891,0 -6.70722,0.003 -7.544,0.0573 -1.06365,0.0698 -1.89025,0.21722 -2.57238,0.45956 -1.36163,0.4847 -2.27538,1.4152 -2.943421,2.99847 -0.182976,0.43552 -0.31988,0.83334 -0.500338,1.4598 l -0.01271,0.0435 h -0.07527 -0.07514 l -0.01271,-0.0435 c -0.48508,-1.6804 -1.068534,-2.76758 -1.891481,-3.51862 -0.979049,-0.89509 -2.286901,-1.3089 -4.470193,-1.41634 -0.193095,-0.0103 -0.397998,-0.0201 -0.454191,-0.0228 -0.05638,-0.003 -3.143087,-0.0126 -6.859542,-0.016 -4.679985,-0.009 -6.826051,-0.0139 -6.980978,-0.0208 -0.385222,-0.0205 -0.612943,-0.0364 -0.838272,-0.0551 -3.606295,-0.2869 -5.637205,-1.42207 -6.68151,-3.73351 -0.548992,-1.2163 -0.848475,-2.79842 -0.938049,-4.9704 l -0.01273,-0.25721 0.07117,-0.0652 c 0.0399,-0.0364 0.07429,-0.0642 0.07654,-0.0608 0.001,0.002 0.02674,0.12116 0.05405,0.26292 0.433837,2.29431 1.293899,3.77924 2.71437,4.68919 0.771591,0.49384 1.710999,0.82536 2.903622,1.02542 0.565758,0.0948 1.087853,0.14743 2.015658,0.20348 0.156059,0.0103 2.114204,0.0139 6.923379,0.0207 6.663751,0.0103 6.842874,0.0103 7.550594,0.0457 1.558713,0.0826 2.666962,0.3029 3.583323,0.71447 0.71784,0.32236 1.287359,0.74761 1.772365,1.32603 0.607862,0.72362 1.086561,1.71585 1.41539,2.92759 0.03222,0.11892 0.0598,0.22524 0.06382,0.23551 0.0037,0.016 0.02063,0.0205 0.06872,0.0205 0.07112,0 0.05638,0.0285 0.127904,-0.22869 0.237995,-0.8505 0.584825,-1.66214 0.96999,-2.26344 0.90353,-1.41064 2.16798,-2.18798 4.12208,-2.53092 0.67703,-0.11991 1.33866,-0.18056 2.43923,-0.2264 0.22534,-0.0103 2.23706,-0.0139 6.82744,-0.0207 4.70692,-0.009 6.56772,-0.0126 6.7251,-0.0206 1.41146,-0.0856 2.31499,-0.22524 3.225,-0.49498 0.62056,-0.18399 1.27463,-0.4744 1.75062,-0.77734 0.43262,-0.27663 0.8434,-0.62758 1.16971,-1.00254 0.78576,-0.89963 1.30671,-2.1514 1.52678,-3.67177 0.0399,-0.2755 0.0263,-0.25609 0.11644,-0.17596 0.0565,0.0493 0.0753,0.074 0.0729,0.0963 0,0.016 -0.003,0.16452 -0.0127,0.3315 z"
       id="path1-4-7-2-3"
       style="fill:#000000;stroke:none;stroke-width:0.0012095" /><ellipse
       style="opacity:1;fill:#000000;fill-opacity:0;stroke:#000000;stroke-width:1.85581;stroke-opacity:1"
       id="path3"
       cx="84.089294"
       cy="135.37978"
       rx="0.61237597"
       ry="0.53170896" /><ellipse
       style="fill:#000000;fill-opacity:1;stroke:#000000;stroke-width:1.85581;stroke-opacity:1"
       id="path3-3"
       cx="93.885773"
       cy="145.07224"
       rx="0.61237597"
       ry="0.53170896" /><ellipse
       style="fill:#000000;fill-opacity:1;stroke:#000000;stroke-width:1.85581;stroke-opacity:1"
       id="path3-9"
       cx="103.79281"
       cy="145.07224"
       rx="0.61237597"
       ry="0.53170896" /><ellipse
       style="fill:#000000;fill-opacity:1;stroke:#000000;stroke-width:1.85581;stroke-opacity:1"
       id="path3-20"
       cx="98.839294"
       cy="145.07224"
       rx="0.61237597"
       ry="0.53170896" /><ellipse
       style="fill:#000000;fill-opacity:0;stroke:#000000;stroke-width:1.85581;stroke-opacity:1"
       id="path3-2"
       cx="113.37832"
       cy="135.37978"
       rx="0.61237597"
       ry="0.53170896" /></g></svg>
